<mxfile host="app.diagrams.net" modified="2024-04-18T06:55:10.097Z" agent="Mozilla/5.0 (Windows NT 10.0; Win64; x64) AppleWebKit/537.36 (KHTML, like Gecko) Chrome/123.0.0.0 Safari/537.36" version="24.2.5" etag="dulxLrMQjK8AFjnXB5F0" type="github">
  <diagram name="Page-1" id="5sZIHBPISgjPJv9gsEk2">
    <mxGraphModel>
      <root>
        <mxCell id="0" />
        <mxCell id="1" parent="0" />
      </root>
    </mxGraphModel>
  </diagram>
</mxfile>
